# xmcd CD database file
#
# Track frame offsets:
#	150
#	22078
#	39065
#	60939
#
# Disc length: 1037 seconds
#
# Revision: 2
# Processed by: cddbd v1.5.2PL0 Copyright (c) Steve Scherf et al.
# Submitted via: CDex 1.70beta2
#
DISCID=23040b04
DTITLE=小倉唯 - 永遠少年
DYEAR=2018
DGENRE=JPop
TTITLE0=永遠少年
TTITLE1=Love Me x Love Me
TTITLE2=永遠少年 (off vocl ver.)
TTITLE3=Love Me x Love Me (off vocal ver.)
EXTD=YEAR: 2018
EXTT0=
EXTT1=
EXTT2=
EXTT3=
PLAYORDER=
